<svg width="35" height="35" viewBox="0 0 35 35" fill="none" xmlns="http://www.w3.org/2000/svg">
<path d="M31.1719 17.5C31.1733 15.224 30.6066 12.9837 29.523 10.9822C28.4394 8.98066 26.8733 7.28134 24.9667 6.03834C23.0601 4.79533 20.8734 4.04798 18.6048 3.86405C16.3363 3.68013 14.0577 4.06546 11.9758 4.98509C9.89385 5.90472 8.07445 7.32956 6.6826 9.13036C5.29074 10.9312 4.37048 13.051 4.00528 15.2975C3.64008 17.544 3.84149 19.8461 4.59126 21.995C5.34102 24.144 6.61541 26.0718 8.29883 27.6035C8.33341 27.6466 8.37501 27.6836 8.42188 27.7129C10.9234 29.9413 14.1567 31.1726 17.5068 31.1726C20.857 31.1726 24.0903 29.9413 26.5918 27.7129L26.7012 27.6035C28.111 26.3253 29.2372 24.7658 30.0073 23.0255C30.7773 21.2853 31.174 19.403 31.1719 17.5ZM4.92187 17.5C4.92171 15.4327 5.43111 13.3972 6.405 11.5736C7.3789 9.75004 8.78726 8.19463 10.5055 7.04502C12.2237 5.8954 14.1988 5.18702 16.2559 4.98254C18.3131 4.77807 20.389 5.08382 22.2999 5.87273C24.2108 6.66163 25.8978 7.90938 27.2116 9.50557C28.5254 11.1017 29.4255 12.9972 29.8322 15.0241C30.239 17.051 30.1399 19.1469 29.5437 21.1264C28.9475 23.1059 27.8726 24.9079 26.4141 26.373C25.0564 24.0986 22.8794 22.4303 20.3301 21.7109C21.514 21.0797 22.4529 20.0709 22.9976 18.8448C23.5423 17.6187 23.6614 16.2457 23.3361 14.944C23.0108 13.6424 22.2597 12.4869 21.2023 11.6612C20.1448 10.8355 18.8417 10.387 17.5 10.387C16.1583 10.387 14.8552 10.8355 13.7977 11.6612C12.7403 12.4869 11.9892 13.6424 11.6639 14.944C11.3386 16.2457 11.4577 17.6187 12.0024 18.8448C12.5471 20.0709 13.486 21.0797 14.6699 21.7109C12.1206 22.4303 9.94359 24.0986 8.58594 26.373C6.24082 24.0152 4.92363 20.8255 4.92187 17.5ZM17.5 21.3281C16.5265 21.3281 15.575 21.0395 14.7656 20.4986C13.9562 19.9578 13.3253 19.1891 12.9528 18.2898C12.5803 17.3904 12.4828 16.4008 12.6727 15.446C12.8626 14.4913 13.3314 13.6143 14.0197 12.926C14.708 12.2376 15.585 11.7689 16.5398 11.5789C17.4945 11.389 18.4842 11.4865 19.3835 11.859C20.2829 12.2316 21.0516 12.8624 21.5924 13.6718C22.1332 14.4812 22.4219 15.4328 22.4219 16.4062C22.4219 17.7116 21.9033 18.9635 20.9803 19.8865C20.0573 20.8096 18.8054 21.3281 17.5 21.3281ZM9.41992 27.125C10.2319 25.6981 11.4073 24.5117 12.8266 23.6864C14.2458 22.8612 15.8583 22.4264 17.5 22.4264C19.1417 22.4264 20.7542 22.8612 22.1734 23.6864C23.5927 24.5117 24.7681 25.6981 25.5801 27.125C23.319 29.0308 20.4571 30.0761 17.5 30.0761C14.5429 30.0761 11.681 29.0308 9.41992 27.125Z" fill="black"/>
</svg>
