<svg width="37" height="36" viewBox="0 0 37 36" xmlns="http://www.w3.org/2000/svg">
<g clip-path="url(#clip0_279_1198)">
<path d="M32.5 29H4.5C4.23478 29 3.98043 28.8946 3.79289 28.7071C3.60536 28.5196 3.5 28.2652 3.5 28C3.5 27.7348 3.60536 27.4804 3.79289 27.2929C3.98043 27.1054 4.23478 27 4.5 27H32.5C32.7652 27 33.0196 27.1054 33.2071 27.2929C33.3946 27.4804 33.5 27.7348 33.5 28C33.5 28.2652 33.3946 28.5196 33.2071 28.7071C33.0196 28.8946 32.7652 29 32.5 29Z" fill="black"/>
<path d="M32.5 19H4.5C4.23478 19 3.98043 18.8946 3.79289 18.7071C3.60536 18.5196 3.5 18.2652 3.5 18C3.5 17.7348 3.60536 17.4804 3.79289 17.2929C3.98043 17.1054 4.23478 17 4.5 17H32.5C32.7652 17 33.0196 17.1054 33.2071 17.2929C33.3946 17.4804 33.5 17.7348 33.5 18C33.5 18.2652 33.3946 18.5196 33.2071 18.7071C33.0196 18.8946 32.7652 19 32.5 19Z" fill="black"/>
<path d="M32.5 9H4.5C4.23478 9 3.98043 8.89464 3.79289 8.70711C3.60536 8.51957 3.5 8.26522 3.5 8C3.5 7.73478 3.60536 7.48043 3.79289 7.29289C3.98043 7.10536 4.23478 7 4.5 7H32.5C32.7652 7 33.0196 7.10536 33.2071 7.29289C33.3946 7.48043 33.5 7.73478 33.5 8C33.5 8.26522 33.3946 8.51957 33.2071 8.70711C33.0196 8.89464 32.7652 9 32.5 9Z" fill="black"/>
</g>
<defs>
<clipPath id="clip0_279_1198">
<rect width="36" height="36" transform="translate(0.5)"/>
</clipPath>
</defs>
</svg>
