<svg width="58" height="58" viewBox="0 0 58 58" fill="none" xmlns="http://www.w3.org/2000/svg">
<path fill-rule="evenodd" clip-rule="evenodd" d="M29 2.41669C14.3187 2.41669 2.41663 14.3188 2.41663 29C2.41663 43.6813 14.3187 55.5834 29 55.5834C43.6812 55.5834 55.5833 43.6813 55.5833 29C55.5833 14.3188 43.6812 2.41669 29 2.41669ZM40.5226 24.505C40.7348 24.2625 40.8963 23.98 40.9977 23.6741C41.0991 23.3682 41.1383 23.0451 41.1129 22.7239C41.0876 22.4027 40.9983 22.0897 40.8503 21.8035C40.7022 21.5173 40.4984 21.2636 40.2509 21.0573C40.0033 20.851 39.717 20.6963 39.4088 20.6023C39.1006 20.5082 38.7766 20.4768 38.4561 20.5099C38.1355 20.5429 37.8248 20.6397 37.5423 20.7945C37.2597 20.9494 37.0109 21.1593 36.8106 21.4117L26.419 33.8793L21.0419 28.4998C20.5861 28.0596 19.9756 27.816 19.342 27.8215C18.7083 27.827 18.1022 28.0811 17.6541 28.5292C17.2061 28.9773 16.9519 29.5834 16.9464 30.217C16.9409 30.8507 17.1845 31.4611 17.6247 31.9169L24.8747 39.1669C25.1122 39.4042 25.3965 39.5895 25.7095 39.7108C26.0225 39.8322 26.3573 39.887 26.6927 39.8718C27.0281 39.8565 27.3566 39.7716 27.6573 39.6224C27.958 39.4731 28.2243 39.2629 28.4393 39.005L40.5226 24.505Z" fill="#0C6C2B"/>
</svg>
