<svg width="54" height="54" viewBox="0 0 54 54" fill="none" xmlns="http://www.w3.org/2000/svg">
<path d="M27.25 49.9688C21.1583 49.9688 15.3161 47.5488 11.0086 43.2414C6.70116 38.9339 4.28125 33.0917 4.28125 27C4.28125 20.9083 6.70116 15.0661 11.0086 10.7586C15.3161 6.45116 21.1583 4.03125 27.25 4.03125C33.3417 4.03125 39.1839 6.45116 43.4914 10.7586C47.7988 15.0661 50.2188 20.9083 50.2188 27C50.2188 33.0917 47.7988 38.9339 43.4914 43.2414C39.1839 47.5488 33.3417 49.9688 27.25 49.9688ZM27.25 53.25C34.2119 53.25 40.8887 50.4844 45.8116 45.5616C50.7344 40.6387 53.5 33.9619 53.5 27C53.5 20.0381 50.7344 13.3613 45.8116 8.43845C40.8887 3.51562 34.2119 0.75 27.25 0.75C20.2881 0.75 13.6113 3.51562 8.68845 8.43845C3.76562 13.3613 1 20.0381 1 27C1 33.9619 3.76562 40.6387 8.68845 45.5616C13.6113 50.4844 20.2881 53.25 27.25 53.25V53.25Z" fill="#0C6C2B" stroke="#0C6C2B"/>
<path d="M36.9954 17.0578C36.972 17.0804 36.9501 17.1046 36.9298 17.13L25.534 31.6495L18.6663 24.7786C18.1998 24.3439 17.5828 24.1072 16.9452 24.1185C16.3077 24.1297 15.6994 24.388 15.2485 24.8389C14.7976 25.2898 14.5393 25.8981 14.5281 26.5356C14.5168 27.1732 14.7535 27.7902 15.1882 28.2567L23.8704 36.9422C24.1043 37.1756 24.3828 37.3596 24.6893 37.4831C24.9959 37.6066 25.3241 37.6671 25.6546 37.6609C25.985 37.6548 26.3108 37.5822 26.6125 37.4474C26.9143 37.3127 27.1858 37.1185 27.4109 36.8765L40.5096 20.5031C40.9556 20.035 41.1995 19.4101 41.1885 18.7636C41.1774 18.1171 40.9124 17.5009 40.4507 17.0483C39.989 16.5956 39.3677 16.3428 38.7211 16.3446C38.0745 16.3464 37.4546 16.6026 36.9954 17.0578V17.0578Z" fill="#0C6C2B" stroke="#0C6C2B"/>
</svg>
