<svg width="70" height="70" viewBox="0 0 70 70" fill="none" xmlns="http://www.w3.org/2000/svg">
<path fill-rule="evenodd" clip-rule="evenodd" d="M35 8.41669C20.3187 8.41669 8.41663 20.3188 8.41663 35C8.41663 49.6813 20.3187 61.5834 35 61.5834C49.6812 61.5834 61.5833 49.6813 61.5833 35C61.5833 20.3188 49.6812 8.41669 35 8.41669ZM46.5226 30.505C46.7348 30.2625 46.8963 29.98 46.9977 29.6741C47.0991 29.3682 47.1383 29.0451 47.1129 28.7239C47.0876 28.4027 46.9983 28.0897 46.8503 27.8035C46.7022 27.5173 46.4984 27.2636 46.2509 27.0573C46.0033 26.851 45.717 26.6963 45.4088 26.6023C45.1006 26.5082 44.7766 26.4768 44.4561 26.5099C44.1355 26.5429 43.8248 26.6397 43.5423 26.7945C43.2597 26.9494 43.0109 27.1593 42.8106 27.4117L32.419 39.8793L27.0419 34.4998C26.5861 34.0596 25.9756 33.816 25.342 33.8215C24.7083 33.827 24.1022 34.0811 23.6541 34.5292C23.2061 34.9773 22.9519 35.5834 22.9464 36.2171C22.9409 36.8507 23.1845 37.4611 23.6247 37.9169L30.8747 45.1669C31.1122 45.4042 31.3965 45.5895 31.7095 45.7108C32.0225 45.8322 32.3573 45.887 32.6927 45.8718C33.0281 45.8565 33.3566 45.7716 33.6573 45.6224C33.958 45.4731 34.2243 45.2629 34.4393 45.005L46.5226 30.505Z" fill="#0C6C2B"/>
</svg>
