<svg width="56" height="56" viewBox="0 0 56 56" fill="none" xmlns="http://www.w3.org/2000/svg">
<path fill-rule="evenodd" clip-rule="evenodd" d="M1 28C1 20.8392 3.84463 13.9716 8.90812 8.90812C13.9716 3.84463 20.8392 1 28 1C35.1608 1 42.0284 3.84463 47.0919 8.90812C52.1554 13.9716 55 20.8392 55 28C55 35.1608 52.1554 42.0284 47.0919 47.0919C42.0284 52.1554 35.1608 55 28 55C20.8392 55 13.9716 52.1554 8.90812 47.0919C3.84463 42.0284 1 35.1608 1 28V28ZM28 4.87287C21.8663 4.87287 15.9838 7.30947 11.6466 11.6466C7.30947 15.9838 4.87287 21.8663 4.87287 28C4.87287 34.1337 7.30947 40.0162 11.6466 44.3533C15.9838 48.6905 21.8663 51.1271 28 51.1271C34.1337 51.1271 40.0162 48.6905 44.3533 44.3533C48.6905 40.0162 51.1271 34.1337 51.1271 28C51.1271 21.8663 48.6905 15.9838 44.3533 11.6466C40.0162 7.30947 34.1337 4.87287 28 4.87287V4.87287ZM37.5966 18.4075C37.9787 18.7898 38.1934 19.3081 38.1934 19.8486C38.1934 20.3891 37.9787 20.9075 37.5966 21.2897L30.8822 28L37.5966 34.7103C37.9793 35.093 38.1943 35.6121 38.1943 36.1534C38.1943 36.6947 37.9793 37.2138 37.5966 37.5966C37.2138 37.9793 36.6947 38.1943 36.1534 38.1943C35.6121 38.1943 35.093 37.9793 34.7103 37.5966L28 30.8822L21.2897 37.5966C21.1002 37.7861 20.8752 37.9364 20.6276 38.039C20.38 38.1415 20.1146 38.1943 19.8466 38.1943C19.5786 38.1943 19.3132 38.1415 19.0656 38.039C18.8179 37.9364 18.593 37.7861 18.4034 37.5966C18.2139 37.407 18.0636 37.182 17.961 36.9344C17.8585 36.6868 17.8057 36.4214 17.8057 36.1534C17.8057 35.8854 17.8585 35.62 17.961 35.3724C18.0636 35.1248 18.2139 34.8998 18.4034 34.7103L25.1178 28L18.4034 21.2897C18.0207 20.907 17.8057 20.3879 17.8057 19.8466C17.8057 19.3053 18.0207 18.7862 18.4034 18.4034C18.7862 18.0207 19.3053 17.8057 19.8466 17.8057C20.3879 17.8057 20.907 18.0207 21.2897 18.4034L28 25.1178L34.7103 18.4034C34.8996 18.2136 35.1245 18.063 35.3722 17.9603C35.6198 17.8575 35.8853 17.8046 36.1534 17.8046C36.4215 17.8046 36.687 17.8575 36.9346 17.9603C37.1823 18.063 37.4072 18.2136 37.5966 18.4034V18.4075Z" fill="#0C6C2B" stroke="#0C6C2B"/>
</svg>
