<svg width="64" height="64" viewBox="0 0 64 64" fill="none" xmlns="http://www.w3.org/2000/svg">
<path d="M32 5.75C35.4472 5.75 38.8606 6.42898 42.0454 7.74816C45.2302 9.06735 48.124 11.0009 50.5616 13.4384C52.9991 15.876 54.9327 18.7698 56.2518 21.9546C57.571 25.1394 58.25 28.5528 58.25 32C58.25 38.9619 55.4844 45.6387 50.5616 50.5616C45.6387 55.4844 38.9619 58.25 32 58.25C28.5528 58.25 25.1394 57.571 21.9546 56.2518C18.7698 54.9327 15.876 52.9991 13.4384 50.5616C8.51562 45.6387 5.75 38.9619 5.75 32C5.75 25.0381 8.51562 18.3613 13.4384 13.4384C18.3613 8.51562 25.0381 5.75 32 5.75V5.75ZM32 28.0625C30.9557 28.0625 29.9542 28.4773 29.2158 29.2158C28.4773 29.9542 28.0625 30.9557 28.0625 32C28.0625 33.0443 28.4773 34.0458 29.2158 34.7842C29.9542 35.5227 30.9557 35.9375 32 35.9375C33.0443 35.9375 34.0458 35.5227 34.7842 34.7842C35.5227 34.0458 35.9375 33.0443 35.9375 32C35.9375 30.9557 35.5227 29.9542 34.7842 29.2158C34.0458 28.4773 33.0443 28.0625 32 28.0625ZM17.5625 28.0625C16.5182 28.0625 15.5167 28.4773 14.7783 29.2158C14.0398 29.9542 13.625 30.9557 13.625 32C13.625 33.0443 14.0398 34.0458 14.7783 34.7842C15.5167 35.5227 16.5182 35.9375 17.5625 35.9375C18.6068 35.9375 19.6083 35.5227 20.3467 34.7842C21.0852 34.0458 21.5 33.0443 21.5 32C21.5 30.9557 21.0852 29.9542 20.3467 29.2158C19.6083 28.4773 18.6068 28.0625 17.5625 28.0625ZM46.4375 28.0625C45.3932 28.0625 44.3917 28.4773 43.6533 29.2158C42.9148 29.9542 42.5 30.9557 42.5 32C42.5 33.0443 42.9148 34.0458 43.6533 34.7842C44.3917 35.5227 45.3932 35.9375 46.4375 35.9375C47.4818 35.9375 48.4833 35.5227 49.2217 34.7842C49.9602 34.0458 50.375 33.0443 50.375 32C50.375 30.9557 49.9602 29.9542 49.2217 29.2158C48.4833 28.4773 47.4818 28.0625 46.4375 28.0625Z" fill="#0C6C2B"/>
</svg>
