<svg width="63" height="64" viewBox="0 0 63 64" fill="none" xmlns="http://www.w3.org/2000/svg">
<path d="M31.5 5.75C34.9472 5.75 38.3606 6.42898 41.5454 7.74816C44.7302 9.06735 47.624 11.0009 50.0616 13.4384C52.4991 15.876 54.4327 18.7698 55.7518 21.9546C57.071 25.1394 57.75 28.5528 57.75 32C57.75 38.9619 54.9844 45.6387 50.0616 50.5616C45.1387 55.4844 38.4619 58.25 31.5 58.25C28.0528 58.25 24.6394 57.571 21.4546 56.2518C18.2698 54.9327 15.376 52.9991 12.9384 50.5616C8.01562 45.6387 5.25 38.9619 5.25 32C5.25 25.0381 8.01562 18.3613 12.9384 13.4384C17.8613 8.51562 24.5381 5.75 31.5 5.75V5.75ZM31.5 11C25.9305 11 20.589 13.2125 16.6508 17.1508C12.7125 21.089 10.5 26.4305 10.5 32C10.5 37.5695 12.7125 42.911 16.6508 46.8492C20.589 50.7875 25.9305 53 31.5 53C37.0695 53 42.411 50.7875 46.3492 46.8492C50.2875 42.911 52.5 37.5695 52.5 32C52.5 26.4305 50.2875 21.089 46.3492 17.1508C42.411 13.2125 37.0695 11 31.5 11V11ZM31.5 28.0625C32.5443 28.0625 33.5458 28.4773 34.2842 29.2158C35.0227 29.9542 35.4375 30.9557 35.4375 32C35.4375 33.0443 35.0227 34.0458 34.2842 34.7842C33.5458 35.5227 32.5443 35.9375 31.5 35.9375C30.4557 35.9375 29.4542 35.5227 28.7158 34.7842C27.9773 34.0458 27.5625 33.0443 27.5625 32C27.5625 30.9557 27.9773 29.9542 28.7158 29.2158C29.4542 28.4773 30.4557 28.0625 31.5 28.0625ZM19.6875 28.0625C20.7318 28.0625 21.7333 28.4773 22.4717 29.2158C23.2102 29.9542 23.625 30.9557 23.625 32C23.625 33.0443 23.2102 34.0458 22.4717 34.7842C21.7333 35.5227 20.7318 35.9375 19.6875 35.9375C18.6432 35.9375 17.6417 35.5227 16.9033 34.7842C16.1648 34.0458 15.75 33.0443 15.75 32C15.75 30.9557 16.1648 29.9542 16.9033 29.2158C17.6417 28.4773 18.6432 28.0625 19.6875 28.0625V28.0625ZM43.3125 28.0625C44.3568 28.0625 45.3583 28.4773 46.0967 29.2158C46.8352 29.9542 47.25 30.9557 47.25 32C47.25 33.0443 46.8352 34.0458 46.0967 34.7842C45.3583 35.5227 44.3568 35.9375 43.3125 35.9375C42.2682 35.9375 41.2667 35.5227 40.5283 34.7842C39.7898 34.0458 39.375 33.0443 39.375 32C39.375 30.9557 39.7898 29.9542 40.5283 29.2158C41.2667 28.4773 42.2682 28.0625 43.3125 28.0625Z" fill="#0C6C2B"/>
</svg>
