<svg width="22" height="22" viewBox="0 0 22 22" fill="none" xmlns="http://www.w3.org/2000/svg">
<path d="M6.40625 9.90625C8.33925 9.90625 9.90625 8.33925 9.90625 6.40625C9.90625 4.47325 8.33925 2.90625 6.40625 2.90625C4.47325 2.90625 2.90625 4.47325 2.90625 6.40625C2.90625 8.33925 4.47325 9.90625 6.40625 9.90625Z" fill="#0C6C2B" stroke="#0C6C2B" stroke-linecap="round" stroke-linejoin="round"/>
<path d="M15.5938 19.0938C17.5267 19.0938 19.0938 17.5267 19.0938 15.5938C19.0938 13.6608 17.5267 12.0938 15.5938 12.0938C13.6608 12.0938 12.0938 13.6608 12.0938 15.5938C12.0938 17.5267 13.6608 19.0938 15.5938 19.0938Z" fill="#0C6C2B" stroke="#0C6C2B" stroke-linecap="round" stroke-linejoin="round"/>
<path d="M15.5938 9.90625C17.5267 9.90625 19.0938 8.33925 19.0938 6.40625C19.0938 4.47325 17.5267 2.90625 15.5938 2.90625C13.6608 2.90625 12.0938 4.47325 12.0938 6.40625C12.0938 8.33925 13.6608 9.90625 15.5938 9.90625Z" fill="#0C6C2B" stroke="#0C6C2B" stroke-linecap="round" stroke-linejoin="round"/>
<path d="M6.40625 19.0938C8.33925 19.0938 9.90625 17.5267 9.90625 15.5938C9.90625 13.6608 8.33925 12.0938 6.40625 12.0938C4.47325 12.0938 2.90625 13.6608 2.90625 15.5938C2.90625 17.5267 4.47325 19.0938 6.40625 19.0938Z" fill="#0C6C2B" stroke="#0C6C2B" stroke-linecap="round" stroke-linejoin="round"/>
</svg>
