<svg width="20" height="21" viewBox="0 0 20 21" fill="none" xmlns="http://www.w3.org/2000/svg">
<path d="M13.0096 3.94009L6.61513 10.5L13.0096 17.0599C13.1241 17.1771 13.1882 17.3344 13.1882 17.4982C13.1882 17.6621 13.1241 17.8194 13.0096 17.9366C12.954 17.9934 12.8877 18.0384 12.8144 18.0692C12.7412 18.1 12.6625 18.1158 12.5831 18.1158C12.5036 18.1158 12.425 18.1 12.3517 18.0692C12.2785 18.0384 12.2121 17.9934 12.1565 17.9366L5.35251 10.958C5.23305 10.8355 5.1662 10.6711 5.1662 10.5C5.1662 10.3288 5.23305 10.1645 5.35251 10.0419L12.1552 3.06333C12.2108 3.00618 12.2774 2.96076 12.3509 2.92974C12.4243 2.89873 12.5033 2.88275 12.5831 2.88275C12.6628 2.88275 12.7418 2.89873 12.8153 2.92974C12.8888 2.96076 12.9553 3.00618 13.0109 3.06333C13.1254 3.18054 13.1895 3.33787 13.1895 3.50171C13.1895 3.66555 13.1254 3.82288 13.0109 3.94009L13.0096 3.94009Z" fill="black"/>
</svg>
