<svg width="21" height="20" viewBox="0 0 21 20" fill="none" xmlns="http://www.w3.org/2000/svg">
<path d="M6.3 0.898254C5.49314 0.89809 4.71101 1.1767 4.08597 1.68694C3.46093 2.19718 3.03137 2.9077 2.87 3.69825H0V5.09825H2.87C3.03066 5.88946 3.45991 6.60079 4.08502 7.11172C4.71013 7.62265 5.49265 7.90176 6.3 7.90176C7.10735 7.90176 7.88987 7.62265 8.51498 7.11172C9.14009 6.60079 9.56934 5.88946 9.73 5.09825H21V3.69825H9.73C9.56863 2.9077 9.13907 2.19718 8.51403 1.68694C7.88899 1.1767 7.10686 0.89809 6.3 0.898254ZM14.7 12.0983C13.8931 12.0981 13.111 12.3767 12.486 12.8869C11.8609 13.3972 11.4314 14.1077 11.27 14.8983H0V16.2983H11.27C11.4307 17.0895 11.8599 17.8008 12.485 18.3117C13.1101 18.8227 13.8927 19.1018 14.7 19.1018C15.5073 19.1018 16.2899 18.8227 16.915 18.3117C17.5401 17.8008 17.9693 17.0895 18.13 16.2983H21V14.8983H18.13C17.9686 14.1077 17.5391 13.3972 16.914 12.8869C16.289 12.3767 15.5069 12.0981 14.7 12.0983Z" fill="#0C6C2B"/>
</svg>
