<svg width="32" height="32" viewBox="0 0 32 32" fill="none" xmlns="http://www.w3.org/2000/svg">
<path d="M22.2222 10.6666V8.04443C22.2222 7.22731 22.0613 6.4182 21.7486 5.66329C21.4359 4.90837 20.9776 4.22244 20.3998 3.64465C19.822 3.06686 19.1361 2.60854 18.3811 2.29584C17.6262 1.98315 16.8171 1.8222 16 1.8222C15.1829 1.8222 14.3738 1.98315 13.6189 2.29584C12.8639 2.60854 12.178 3.06686 11.6002 3.64465C11.0224 4.22244 10.5641 4.90837 10.2514 5.66329C9.93872 6.4182 9.77778 7.22731 9.77778 8.04443V14.2666C9.77778 14.5024 9.87143 14.7285 10.0381 14.8952C10.2048 15.0619 10.4309 15.1555 10.6667 15.1555C10.9024 15.1555 11.1285 15.0619 11.2952 14.8952C11.4619 14.7285 11.5556 14.5024 11.5556 14.2666V12.4444H18.6667V10.6666H11.5556V8.04443C11.5556 6.86569 12.0238 5.73523 12.8573 4.90173C13.6908 4.06824 14.8213 3.59998 16 3.59998C17.1787 3.59998 18.3092 4.06824 19.1427 4.90173C19.9762 5.73523 20.4444 6.86569 20.4444 8.04443V14.2222C20.4444 14.458 20.5381 14.684 20.7048 14.8507C20.8715 15.0174 21.0976 15.1111 21.3333 15.1111C21.5691 15.1111 21.7952 15.0174 21.9619 14.8507C22.1286 14.684 22.2222 14.458 22.2222 14.2222V12.4444H26.6667V28.4444H5.33334V12.4444H8V10.6666H3.55556V28.5244C3.55556 28.9747 3.73443 29.4065 4.05282 29.7249C4.37122 30.0433 4.80306 30.2222 5.25333 30.2222H26.7467C27.1969 30.2222 27.6288 30.0433 27.9472 29.7249C28.2656 29.4065 28.4444 28.9747 28.4444 28.5244V10.6666H22.2222Z" fill="black"/>
</svg>
