<?xml version="1.0" encoding="UTF-8" standalone="no"?>
<!DOCTYPE svg PUBLIC "-//W3C//DTD SVG 1.1//EN" "http://www.w3.org/Graphics/SVG/1.1/DTD/svg11.dtd">
<svg width="100%" height="100%" viewBox="0 0 1432 378" version="1.1" xmlns="http://www.w3.org/2000/svg" xmlnsXlink="http://www.w3.org/1999/xlink" xmlSpace="preserve" xmlnsSerif="http://www.serif.com/" style="fill-rule:evenodd;clip-rule:evenodd;stroke-linejoin:round;stroke-miterlimit:2;">
    <g transform="matrix(1,0,0,0.472622,-193.155,-128.5)">
        <g transform="matrix(400,0,0,846.341,144.755,1067.45)">
            <path d="M1.318,-0.432C1.333,-0.432 1.345,-0.429 1.352,-0.422C1.359,-0.415 1.362,-0.407 1.362,-0.396C1.362,-0.379 1.357,-0.363 1.347,-0.35C1.336,-0.337 1.32,-0.33 1.298,-0.329C1.245,-0.328 1.198,-0.332 1.156,-0.341C1.109,-0.242 1.053,-0.159 0.988,-0.094C0.922,-0.028 0.857,0.005 0.793,0.005C0.734,0.005 0.69,-0.026 0.661,-0.089C0.632,-0.151 0.615,-0.234 0.611,-0.339C0.571,-0.223 0.526,-0.137 0.475,-0.08C0.425,-0.023 0.372,0.005 0.315,0.005C0.251,0.005 0.203,-0.035 0.17,-0.115C0.137,-0.194 0.121,-0.301 0.121,-0.436C0.121,-0.534 0.13,-0.642 0.147,-0.759C0.152,-0.792 0.16,-0.816 0.172,-0.829C0.185,-0.842 0.204,-0.848 0.231,-0.848C0.251,-0.848 0.267,-0.844 0.278,-0.835C0.289,-0.826 0.294,-0.81 0.294,-0.787C0.294,-0.782 0.293,-0.773 0.292,-0.76C0.272,-0.623 0.262,-0.507 0.262,-0.411C0.262,-0.322 0.27,-0.253 0.285,-0.204C0.3,-0.155 0.321,-0.131 0.347,-0.131C0.37,-0.131 0.399,-0.156 0.432,-0.204C0.465,-0.254 0.497,-0.326 0.53,-0.423C0.563,-0.519 0.59,-0.634 0.613,-0.767C0.618,-0.798 0.628,-0.819 0.643,-0.831C0.657,-0.842 0.676,-0.848 0.701,-0.848C0.722,-0.848 0.737,-0.844 0.747,-0.835C0.756,-0.826 0.761,-0.812 0.761,-0.794C0.761,-0.783 0.76,-0.775 0.759,-0.769C0.74,-0.66 0.731,-0.552 0.731,-0.443C0.731,-0.369 0.734,-0.31 0.739,-0.266C0.744,-0.222 0.753,-0.189 0.768,-0.166C0.782,-0.142 0.803,-0.131 0.83,-0.131C0.862,-0.131 0.898,-0.155 0.937,-0.203C0.976,-0.252 1.012,-0.312 1.045,-0.384C1.004,-0.409 0.974,-0.442 0.953,-0.483C0.932,-0.523 0.922,-0.569 0.922,-0.622C0.922,-0.675 0.93,-0.719 0.947,-0.755C0.963,-0.792 0.985,-0.819 1.014,-0.837C1.042,-0.855 1.073,-0.864 1.108,-0.864C1.151,-0.864 1.185,-0.849 1.21,-0.818C1.235,-0.787 1.247,-0.745 1.247,-0.692C1.247,-0.617 1.231,-0.533 1.198,-0.441C1.232,-0.435 1.272,-0.432 1.318,-0.432ZM1.023,-0.629C1.023,-0.564 1.044,-0.515 1.086,-0.484C1.112,-0.559 1.125,-0.62 1.125,-0.669C1.125,-0.697 1.121,-0.718 1.114,-0.731C1.107,-0.744 1.097,-0.75 1.084,-0.75C1.066,-0.75 1.051,-0.74 1.04,-0.719C1.029,-0.698 1.023,-0.668 1.023,-0.629Z" style="fill-rule:nonzero;"/>
        </g>
        <g transform="matrix(400,0,0,846.341,631.555,1067.45)">
            <path d="M0.119,0.005C0.094,0.005 0.076,-0.008 0.066,-0.035C0.055,-0.062 0.05,-0.104 0.05,-0.163C0.05,-0.25 0.062,-0.332 0.087,-0.41C0.093,-0.429 0.103,-0.444 0.117,-0.453C0.13,-0.462 0.149,-0.466 0.174,-0.466C0.187,-0.466 0.197,-0.464 0.202,-0.461C0.207,-0.458 0.21,-0.451 0.21,-0.442C0.21,-0.431 0.205,-0.407 0.195,-0.37C0.188,-0.343 0.183,-0.32 0.179,-0.3C0.175,-0.28 0.172,-0.255 0.169,-0.226C0.191,-0.283 0.216,-0.33 0.243,-0.366C0.27,-0.402 0.297,-0.428 0.324,-0.443C0.35,-0.458 0.374,-0.466 0.396,-0.466C0.439,-0.466 0.461,-0.444 0.461,-0.401C0.461,-0.392 0.458,-0.371 0.452,-0.338C0.447,-0.311 0.444,-0.295 0.444,-0.288C0.444,-0.265 0.452,-0.253 0.469,-0.253C0.488,-0.253 0.512,-0.268 0.541,-0.297C0.55,-0.306 0.559,-0.31 0.568,-0.31C0.577,-0.31 0.584,-0.306 0.589,-0.299C0.594,-0.291 0.596,-0.281 0.596,-0.268C0.596,-0.243 0.589,-0.224 0.576,-0.21C0.557,-0.191 0.536,-0.174 0.51,-0.161C0.486,-0.147 0.459,-0.14 0.431,-0.14C0.396,-0.14 0.369,-0.149 0.35,-0.167C0.332,-0.185 0.323,-0.209 0.323,-0.24C0.323,-0.25 0.324,-0.26 0.326,-0.27C0.327,-0.283 0.328,-0.292 0.328,-0.297C0.328,-0.308 0.324,-0.313 0.317,-0.313C0.307,-0.313 0.294,-0.302 0.278,-0.28C0.261,-0.257 0.245,-0.228 0.229,-0.191C0.213,-0.154 0.2,-0.116 0.19,-0.075C0.183,-0.044 0.174,-0.023 0.165,-0.012C0.155,-0.001 0.14,0.005 0.119,0.005Z" style="fill-rule:nonzero;"/>
        </g>
        <g transform="matrix(400,0,0,846.341,813.555,1067.45)">
            <path d="M0.179,-0.532C0.151,-0.532 0.13,-0.539 0.116,-0.552C0.102,-0.565 0.095,-0.583 0.095,-0.606C0.095,-0.629 0.104,-0.649 0.123,-0.665C0.141,-0.68 0.164,-0.688 0.191,-0.688C0.216,-0.688 0.236,-0.682 0.251,-0.67C0.266,-0.658 0.274,-0.641 0.274,-0.619C0.274,-0.592 0.265,-0.571 0.248,-0.556C0.231,-0.54 0.208,-0.532 0.179,-0.532ZM0.171,0.005C0.128,0.005 0.096,-0.01 0.077,-0.041C0.057,-0.072 0.047,-0.112 0.047,-0.163C0.047,-0.193 0.051,-0.232 0.059,-0.279C0.066,-0.326 0.076,-0.369 0.088,-0.41C0.094,-0.431 0.102,-0.446 0.112,-0.454C0.122,-0.462 0.138,-0.466 0.16,-0.466C0.194,-0.466 0.211,-0.455 0.211,-0.432C0.211,-0.415 0.205,-0.377 0.192,-0.316C0.176,-0.243 0.168,-0.193 0.168,-0.167C0.168,-0.147 0.171,-0.132 0.176,-0.121C0.181,-0.11 0.19,-0.105 0.203,-0.105C0.215,-0.105 0.23,-0.113 0.248,-0.13C0.266,-0.147 0.29,-0.173 0.32,-0.209C0.328,-0.218 0.337,-0.223 0.347,-0.223C0.356,-0.223 0.363,-0.219 0.368,-0.211C0.373,-0.203 0.375,-0.192 0.375,-0.178C0.375,-0.151 0.369,-0.131 0.356,-0.116C0.29,-0.035 0.228,0.005 0.171,0.005Z" style="fill-rule:nonzero;"/>
        </g>
        <g transform="matrix(400,0,0,846.341,911.955,1067.45)">
            <path d="M0.119,0.005C0.094,0.005 0.076,-0.008 0.066,-0.035C0.055,-0.062 0.05,-0.104 0.05,-0.163C0.05,-0.25 0.062,-0.332 0.087,-0.41C0.093,-0.429 0.103,-0.444 0.117,-0.453C0.13,-0.462 0.149,-0.466 0.174,-0.466C0.187,-0.466 0.197,-0.464 0.202,-0.461C0.207,-0.458 0.21,-0.451 0.21,-0.442C0.21,-0.431 0.205,-0.407 0.195,-0.37C0.188,-0.343 0.183,-0.32 0.179,-0.3C0.175,-0.28 0.172,-0.255 0.169,-0.226C0.191,-0.283 0.216,-0.33 0.243,-0.366C0.27,-0.402 0.297,-0.428 0.324,-0.443C0.35,-0.458 0.374,-0.466 0.396,-0.466C0.439,-0.466 0.461,-0.444 0.461,-0.401C0.461,-0.375 0.454,-0.328 0.439,-0.26C0.426,-0.202 0.42,-0.164 0.42,-0.145C0.42,-0.118 0.43,-0.105 0.449,-0.105C0.462,-0.105 0.478,-0.113 0.497,-0.13C0.515,-0.146 0.539,-0.172 0.57,-0.209C0.578,-0.218 0.587,-0.223 0.597,-0.223C0.606,-0.223 0.613,-0.219 0.618,-0.211C0.623,-0.203 0.625,-0.192 0.625,-0.178C0.625,-0.151 0.619,-0.131 0.606,-0.116C0.577,-0.081 0.547,-0.052 0.514,-0.029C0.481,-0.006 0.443,0.005 0.401,0.005C0.367,0.005 0.341,-0.005 0.324,-0.025C0.307,-0.044 0.298,-0.073 0.298,-0.11C0.298,-0.129 0.303,-0.162 0.312,-0.21C0.321,-0.252 0.325,-0.281 0.325,-0.297C0.325,-0.308 0.321,-0.313 0.314,-0.313C0.305,-0.313 0.293,-0.302 0.278,-0.28C0.262,-0.257 0.246,-0.228 0.23,-0.191C0.213,-0.154 0.2,-0.116 0.19,-0.075C0.183,-0.044 0.174,-0.023 0.165,-0.012C0.155,-0.001 0.14,0.005 0.119,0.005Z" style="fill-rule:nonzero;"/>
        </g>
        <g transform="matrix(400,0,0,846.341,1110.36,1067.45)">
            <path d="M0.626,-0.223C0.635,-0.223 0.642,-0.219 0.647,-0.211C0.652,-0.203 0.654,-0.192 0.654,-0.178C0.654,-0.151 0.648,-0.131 0.635,-0.116C0.605,-0.079 0.575,-0.05 0.544,-0.028C0.513,-0.006 0.477,0.005 0.435,0.005C0.384,0.005 0.342,-0.01 0.311,-0.039C0.28,-0.068 0.264,-0.107 0.264,-0.156C0.264,-0.182 0.277,-0.201 0.304,-0.212C0.333,-0.225 0.354,-0.238 0.367,-0.253C0.38,-0.267 0.386,-0.284 0.386,-0.305C0.386,-0.317 0.384,-0.326 0.379,-0.332C0.374,-0.338 0.367,-0.341 0.36,-0.341C0.342,-0.341 0.322,-0.328 0.301,-0.302C0.279,-0.276 0.259,-0.243 0.24,-0.202C0.221,-0.161 0.207,-0.118 0.196,-0.075C0.189,-0.044 0.18,-0.023 0.171,-0.012C0.161,-0.001 0.146,0.005 0.125,0.005C0.104,0.005 0.089,-0.003 0.08,-0.018C0.07,-0.033 0.063,-0.056 0.06,-0.087C0.057,-0.118 0.055,-0.164 0.055,-0.225C0.055,-0.328 0.066,-0.435 0.086,-0.546C0.108,-0.657 0.139,-0.751 0.18,-0.827C0.221,-0.902 0.27,-0.94 0.327,-0.94C0.358,-0.94 0.383,-0.927 0.402,-0.901C0.421,-0.874 0.43,-0.84 0.43,-0.798C0.43,-0.731 0.41,-0.661 0.371,-0.589C0.332,-0.516 0.268,-0.432 0.179,-0.335C0.177,-0.3 0.176,-0.265 0.176,-0.228C0.208,-0.311 0.245,-0.372 0.286,-0.409C0.327,-0.447 0.366,-0.466 0.402,-0.466C0.435,-0.466 0.462,-0.455 0.483,-0.432C0.503,-0.409 0.513,-0.381 0.513,-0.348C0.513,-0.311 0.504,-0.278 0.485,-0.247C0.466,-0.216 0.434,-0.189 0.389,-0.165C0.392,-0.147 0.4,-0.133 0.413,-0.122C0.427,-0.111 0.444,-0.105 0.463,-0.105C0.484,-0.105 0.504,-0.113 0.523,-0.129C0.542,-0.145 0.568,-0.172 0.599,-0.209C0.607,-0.218 0.616,-0.223 0.626,-0.223ZM0.306,-0.841C0.294,-0.841 0.281,-0.824 0.266,-0.79C0.251,-0.755 0.237,-0.709 0.224,-0.651C0.21,-0.592 0.199,-0.529 0.19,-0.46C0.231,-0.509 0.266,-0.562 0.293,-0.619C0.32,-0.676 0.333,-0.728 0.333,-0.775C0.333,-0.796 0.331,-0.813 0.326,-0.824C0.321,-0.835 0.315,-0.841 0.306,-0.841Z" style="fill-rule:nonzero;"/>
        </g>
        <g transform="matrix(400,0,0,846.341,1320.36,1067.45)">
            <path d="M0.427,-0.223C0.436,-0.223 0.443,-0.219 0.448,-0.211C0.453,-0.203 0.455,-0.192 0.455,-0.178C0.455,-0.151 0.449,-0.131 0.436,-0.116C0.407,-0.081 0.376,-0.052 0.343,-0.029C0.309,-0.006 0.271,0.005 0.228,0.005C0.169,0.005 0.126,-0.022 0.098,-0.075C0.069,-0.128 0.055,-0.197 0.055,-0.282C0.055,-0.363 0.066,-0.456 0.086,-0.56C0.108,-0.664 0.139,-0.753 0.18,-0.828C0.221,-0.903 0.269,-0.94 0.326,-0.94C0.358,-0.94 0.383,-0.925 0.402,-0.896C0.42,-0.866 0.429,-0.823 0.429,-0.768C0.429,-0.689 0.407,-0.597 0.363,-0.492C0.319,-0.387 0.259,-0.284 0.184,-0.181C0.189,-0.154 0.196,-0.134 0.207,-0.123C0.218,-0.111 0.232,-0.105 0.249,-0.105C0.276,-0.105 0.3,-0.113 0.321,-0.129C0.342,-0.144 0.368,-0.171 0.4,-0.209C0.408,-0.218 0.417,-0.223 0.427,-0.223ZM0.304,-0.841C0.289,-0.841 0.271,-0.813 0.252,-0.758C0.233,-0.703 0.216,-0.634 0.201,-0.552C0.186,-0.47 0.178,-0.391 0.177,-0.316C0.224,-0.394 0.262,-0.472 0.29,-0.551C0.318,-0.629 0.332,-0.7 0.332,-0.765C0.332,-0.816 0.323,-0.841 0.304,-0.841Z" style="fill-rule:nonzero;"/>
        </g>
        <g transform="matrix(400,0,0,846.341,1450.76,1067.45)">
            <path d="M0.406,-0.193C0.415,-0.193 0.422,-0.189 0.427,-0.181C0.432,-0.173 0.434,-0.162 0.434,-0.148C0.434,-0.124 0.428,-0.103 0.417,-0.086C0.398,-0.057 0.374,-0.035 0.344,-0.019C0.313,-0.003 0.277,0.005 0.235,0.005C0.171,0.005 0.121,-0.014 0.086,-0.053C0.051,-0.091 0.033,-0.143 0.033,-0.208C0.033,-0.254 0.043,-0.297 0.062,-0.337C0.081,-0.376 0.108,-0.408 0.142,-0.431C0.177,-0.454 0.216,-0.466 0.259,-0.466C0.298,-0.466 0.329,-0.455 0.352,-0.432C0.375,-0.408 0.387,-0.377 0.387,-0.338C0.387,-0.292 0.371,-0.253 0.338,-0.22C0.305,-0.187 0.248,-0.16 0.169,-0.141C0.185,-0.11 0.212,-0.095 0.25,-0.095C0.277,-0.095 0.3,-0.101 0.318,-0.114C0.335,-0.127 0.356,-0.148 0.379,-0.178C0.387,-0.188 0.396,-0.193 0.406,-0.193ZM0.242,-0.368C0.217,-0.368 0.197,-0.354 0.18,-0.325C0.163,-0.296 0.154,-0.262 0.154,-0.221L0.154,-0.219C0.193,-0.228 0.224,-0.242 0.247,-0.261C0.27,-0.28 0.281,-0.301 0.281,-0.326C0.281,-0.339 0.278,-0.349 0.271,-0.357C0.264,-0.364 0.254,-0.368 0.242,-0.368Z" style="fill-rule:nonzero;"/>
        </g>
    </g>
</svg>
