<?xml version="1.0" encoding="UTF-8" standalone="no"?>
<!DOCTYPE svg PUBLIC "-//W3C//DTD SVG 1.1//EN" "http://www.w3.org/Graphics/SVG/1.1/DTD/svg11.dtd">
<svg width="100%" height="100%" viewBox="0 0 1800 1800" version="1.1" xmlns="http://www.w3.org/2000/svg" xmlnsXlink="http://www.w3.org/1999/xlink" xmlSpace="preserve" xmlnsSerif="http://www.serif.com/" style="fill-rule:evenodd;clip-rule:evenodd;stroke-linejoin:round;stroke-miterlimit:2;">
    <g transform="matrix(1377.66,0,0,1377.66,-121.534,1491.7)">
        <path d="M1.318,-0.432C1.333,-0.432 1.345,-0.429 1.352,-0.422C1.359,-0.415 1.362,-0.407 1.362,-0.396C1.362,-0.379 1.357,-0.363 1.347,-0.35C1.336,-0.337 1.32,-0.33 1.298,-0.329C1.245,-0.328 1.198,-0.332 1.156,-0.341C1.109,-0.242 1.053,-0.159 0.988,-0.094C0.922,-0.028 0.857,0.005 0.793,0.005C0.734,0.005 0.69,-0.026 0.661,-0.089C0.632,-0.151 0.615,-0.234 0.611,-0.339C0.571,-0.223 0.526,-0.137 0.475,-0.08C0.425,-0.023 0.372,0.005 0.315,0.005C0.251,0.005 0.203,-0.035 0.17,-0.115C0.137,-0.194 0.121,-0.301 0.121,-0.436C0.121,-0.534 0.13,-0.642 0.147,-0.759C0.152,-0.792 0.16,-0.816 0.172,-0.829C0.185,-0.842 0.204,-0.848 0.231,-0.848C0.251,-0.848 0.267,-0.844 0.278,-0.835C0.289,-0.826 0.294,-0.81 0.294,-0.787C0.294,-0.782 0.293,-0.773 0.292,-0.76C0.272,-0.623 0.262,-0.507 0.262,-0.411C0.262,-0.322 0.27,-0.253 0.285,-0.204C0.3,-0.155 0.321,-0.131 0.347,-0.131C0.37,-0.131 0.399,-0.156 0.432,-0.204C0.465,-0.254 0.497,-0.326 0.53,-0.423C0.563,-0.519 0.59,-0.634 0.613,-0.767C0.618,-0.798 0.628,-0.819 0.643,-0.831C0.657,-0.842 0.676,-0.848 0.701,-0.848C0.722,-0.848 0.737,-0.844 0.747,-0.835C0.756,-0.826 0.761,-0.812 0.761,-0.794C0.761,-0.783 0.76,-0.775 0.759,-0.769C0.74,-0.66 0.731,-0.552 0.731,-0.443C0.731,-0.369 0.734,-0.31 0.739,-0.266C0.744,-0.222 0.753,-0.189 0.768,-0.166C0.782,-0.142 0.803,-0.131 0.83,-0.131C0.862,-0.131 0.898,-0.155 0.937,-0.203C0.976,-0.252 1.012,-0.312 1.045,-0.384C1.004,-0.409 0.974,-0.442 0.953,-0.483C0.932,-0.523 0.922,-0.569 0.922,-0.622C0.922,-0.675 0.93,-0.719 0.947,-0.755C0.963,-0.792 0.985,-0.819 1.014,-0.837C1.042,-0.855 1.073,-0.864 1.108,-0.864C1.151,-0.864 1.185,-0.849 1.21,-0.818C1.235,-0.787 1.247,-0.745 1.247,-0.692C1.247,-0.617 1.231,-0.533 1.198,-0.441C1.232,-0.435 1.272,-0.432 1.318,-0.432ZM1.023,-0.629C1.023,-0.564 1.044,-0.515 1.086,-0.484C1.112,-0.559 1.125,-0.62 1.125,-0.669C1.125,-0.697 1.121,-0.718 1.114,-0.731C1.107,-0.744 1.097,-0.75 1.084,-0.75C1.066,-0.75 1.051,-0.74 1.04,-0.719C1.029,-0.698 1.023,-0.668 1.023,-0.629Z" style="fill-rule:nonzero; fill:#0c6c2b"/>
    </g>
</svg>
